<svg width="67" height="51" viewBox="0 0 67 51" fill="none" xmlns="http://www.w3.org/2000/svg">
<g clip-path="url(#clip0_8562_67823)">
<path d="M32.2302 36.9082H30.8402L29.2402 42.9482H30.6602C31.3502 42.9782 32.0402 42.7482 32.6002 42.2982C33.1802 41.6382 33.5802 40.8082 33.7602 39.9182V39.8982C33.8702 39.4682 33.9302 39.0182 33.9402 38.5682C33.9402 37.4582 33.3702 36.9082 32.2302 36.9082Z" fill="#B02A2F"/>
<path d="M34.3794 28.0371H33.1194L31.6094 33.8071H32.8394C33.4994 33.8471 34.1494 33.6271 34.6694 33.1771C35.2394 32.5571 35.6294 31.7771 35.7794 30.9271V30.9071C35.9194 30.5071 35.9994 30.0871 36.0094 29.6571C36.0094 28.5771 35.4494 28.0471 34.3594 28.0471L34.3794 28.0371Z" fill="#B02A2F"/>
<path d="M64.15 28.0376L63.32 23.0376L62.27 16.7076C61.89 15.6676 60.94 15.1176 59.98 15.1976C58.23 12.0976 54.88 9.8976 50.58 9.3376C48.58 6.3576 45.32 4.4476 41.9 4.5876C41.81 4.5876 41.72 4.5876 41.63 4.6076C40.14 2.4676 38.05 0.957601 35.63 0.327601C32.86 -0.402399 29.98 0.0976007 27.53 1.7276C26.41 2.4776 25.42 3.4676 24.62 4.6076C24.51 4.6076 24.4 4.5876 24.29 4.5876C20.8 4.5376 17.66 6.3676 15.66 9.3476C11.53 9.9176 8.17 12.1476 6.36 15.1776C5.58 15.1976 4.83 15.5976 4.42 16.3976C4.37 16.4876 4.33 16.5776 4.29 16.6776L3.15 23.0576L2.26 28.0576L0.18 39.6976C0.06 40.0176 0 40.3576 0 40.6976C0 46.0076 14.85 50.3276 33.12 50.3276C51.39 50.3276 66.24 46.0076 66.24 40.6876L64.15 28.0376ZM16.76 12.9876C17.31 12.9476 17.8 12.6176 18.1 12.0976C19.41 9.7676 21.76 8.3276 24.2 8.3276H24.23C24.55 8.3476 24.87 8.3776 25.19 8.4276C25.87 8.5476 26.56 8.2076 26.93 7.5476C27.53 6.4676 28.36 5.5676 29.34 4.9076C31 3.7976 32.96 3.4476 34.85 3.9476C36.75 4.4476 38.35 5.7276 39.36 7.5476C39.73 8.1976 40.41 8.5476 41.1 8.4276C41.42 8.3676 41.74 8.3376 42 8.3276H42.04C44.53 8.3276 46.88 9.7676 48.19 12.0976C48.48 12.6176 48.98 12.9376 49.53 12.9876C52.79 13.2476 55.38 14.6376 56.78 16.6476C51.71 18.8476 43.12 20.3076 33.33 20.3076C23.54 20.3076 14.73 18.8276 9.68 16.5776C11.16 14.6376 13.75 13.2476 16.78 12.9976L16.76 12.9876ZM42.94 31.5376C42.26 33.7176 40.46 35.2476 38.37 35.4476C39.19 35.6976 39.93 36.2076 40.5 36.9076C41.05 37.5976 41.33 38.4976 41.28 39.4176C41.3 39.9176 41.28 40.4276 41.18 40.9276C40.83 42.4376 39.94 43.7176 38.71 44.4876C37.07 45.3376 35.27 45.7176 33.45 45.6176H21.88C21.57 45.6376 21.26 45.5576 20.99 45.3976C20.78 45.2976 20.66 45.0676 20.65 44.8276C20.63 44.6876 20.63 44.5576 20.65 44.4276C20.71 44.2076 20.85 44.0276 21.02 43.8976L21.31 43.6976C21.57 43.5176 21.82 43.3076 22.04 43.0676C22.26 42.7576 22.43 42.3976 22.52 42.0176L25.92 28.8076C25.95 28.5576 25.95 28.3076 25.92 28.0576C25.96 27.8776 25.96 27.6876 25.92 27.5076C25.85 27.3276 25.67 27.1576 25.67 26.9576C25.53 26.7776 25.44 26.5476 25.42 26.3076C25.4 26.2076 25.4 26.0876 25.42 25.9776C25.48 25.7176 25.66 25.5076 25.9 25.4276C26.27 25.2776 26.66 25.2076 27.06 25.2276H36.95C38.07 25.2076 39.2 25.4276 40.24 25.8776C41.08 26.2076 41.83 26.7976 42.39 27.5776C42.49 27.7176 42.54 27.8976 42.62 28.0576C42.95 28.6776 43.15 29.3676 43.15 30.0876C43.15 30.5676 43.09 31.0576 42.94 31.5376Z" fill="#B02A2F"/>
<path d="M56.7391 16.6534C55.3291 14.6443 52.7391 13.265 49.4891 12.9951C48.9391 12.9551 48.4491 12.6252 48.1491 12.1055C46.8391 9.77651 44.4891 8.33715 41.9991 8.33715H41.9591C41.6991 8.33715 41.3791 8.38713 41.0591 8.4371C40.3791 8.56705 39.6891 8.2172 39.3191 7.5575C38.2991 5.7383 36.6991 4.45887 34.8091 3.9591C32.9091 3.45932 30.9591 3.79917 29.2991 4.91867C28.3191 5.56838 27.4891 6.48797 26.8891 7.5575C26.5191 8.20721 25.8391 8.54705 25.1491 8.4371C24.8291 8.37713 24.5091 8.34714 24.1891 8.33715H24.1591C21.7191 8.33715 19.3691 9.77651 18.0591 12.1055C17.7691 12.6252 17.2691 12.9451 16.7191 12.9951C13.6891 13.235 11.1091 14.6343 9.61914 16.5735C14.6591 18.8225 23.3791 20.3018 33.2691 20.3018C43.0691 20.3018 51.6491 18.8325 56.7191 16.6435L56.7391 16.6534Z" fill="white"/>
<path d="M42.3995 27.5691C41.8395 26.7894 41.0995 26.1997 40.2495 25.8699C39.1995 25.4201 38.0795 25.1902 36.9595 25.2201H27.0695C26.6695 25.2002 26.2695 25.2701 25.9095 25.4201C25.6695 25.5 25.4895 25.7099 25.4295 25.9698C25.4095 26.0798 25.4095 26.1897 25.4295 26.2997C25.4495 26.5396 25.5295 26.7695 25.6795 26.9494C25.6795 27.1493 25.8595 27.3192 25.9295 27.4991C25.9695 27.679 25.9695 27.869 25.9295 28.0489C25.9595 28.2988 25.9595 28.5487 25.9295 28.7985L22.5295 42.0027C22.4295 42.3825 22.2795 42.7423 22.0495 43.0522C21.8295 43.2921 21.5795 43.502 21.3195 43.6819L21.0295 43.8818C20.8595 44.0118 20.7295 44.1917 20.6595 44.4116C20.6395 44.5515 20.6395 44.6815 20.6595 44.8114C20.6595 45.0613 20.7995 45.2812 20.9995 45.3812C21.2695 45.5511 21.5795 45.6311 21.8895 45.6011H33.4695C35.2795 45.711 37.0895 45.3212 38.7295 44.4716C39.9595 43.7019 40.8395 42.4225 41.1995 40.9132C41.2895 40.4234 41.3195 39.9136 41.2995 39.4038C41.3495 38.4842 41.0695 37.5846 40.5195 36.8949C39.9495 36.1953 39.2095 35.6955 38.3895 35.4356C40.4795 35.2357 42.2795 33.6964 42.9595 31.5273C43.0995 31.0475 43.1695 30.5478 43.1695 30.048C43.1695 29.3283 42.9695 28.6386 42.6395 28.0189C42.5395 27.889 42.4995 27.719 42.3995 27.5691ZM33.7595 39.9036V39.9236C33.5795 40.8132 33.1695 41.6428 32.5995 42.3025C32.0395 42.7523 31.3595 42.9822 30.6595 42.9523H29.2395L30.8395 36.9149H32.2295C33.3695 36.9149 33.9395 37.4647 33.9395 38.5742C33.9395 39.024 33.8695 39.4638 33.7595 39.9036ZM35.7995 30.9076V30.9276C35.6295 31.7772 35.2395 32.5669 34.6895 33.1766C34.1695 33.6164 33.5195 33.8363 32.8595 33.8063H31.6295L33.1395 28.0389H34.3995C35.4995 28.0389 36.0495 28.5687 36.0495 29.6382C36.0295 30.068 35.9495 30.4878 35.8195 30.8976L35.7995 30.9076Z" fill="white"/>
</g>
<defs>
<clipPath id="clip0_8562_67823">
<rect width="66.25" height="50.3276" fill="white"/>
</clipPath>
</defs>
</svg>
