<svg width="42" height="42" viewBox="0 0 42 42" fill="none" xmlns="http://www.w3.org/2000/svg">
<circle cx="21" cy="21" r="21" fill="#BE1A21"/>
<path d="M9.03858 11.5559C9.7637 10.2948 11.1709 9.58653 12.6157 9.75614L12.9946 9.80106C13.9202 9.90992 14.7647 10.3822 15.3423 11.1136C16.0142 11.9645 16.2565 13.0783 15.9976 14.1311L13.979 22.3343C13.5407 24.115 11.8443 25.2912 10.023 25.0774L7.83448 24.8206C6.46663 24.6599 5.30667 23.7398 4.83839 22.4446L4.61671 21.8304C4.25332 20.8244 4.35123 19.7098 4.88429 18.7825L9.03858 11.5559ZM29.3775 9.75614C30.8222 9.58655 32.2295 10.2948 32.9546 11.5559L37.1099 18.7825C37.6426 19.7096 37.7407 20.8247 37.3775 21.8304L37.1558 22.4446C36.6876 23.7398 35.5274 24.6597 34.1597 24.8206L31.9702 25.0774C30.1489 25.2913 28.4536 24.1149 28.0151 22.3343L25.9966 14.1311C25.7376 13.0781 25.9788 11.9646 26.6509 11.1136C27.2286 10.382 28.0737 9.9098 28.9995 9.80106L29.3775 9.75614ZM12.3247 12.2395C11.8731 12.1865 11.4332 12.4079 11.2066 12.802L7.05128 20.0286C6.88487 20.3183 6.85393 20.6665 6.96729 20.9807L7.18897 21.595C7.33537 21.9996 7.69817 22.2869 8.1255 22.3372L10.315 22.595C10.8839 22.6616 11.4141 22.2938 11.5513 21.7376L13.5698 13.5345C13.6446 13.2306 13.5742 12.909 13.3804 12.6634C13.2137 12.4523 12.9698 12.3159 12.7026 12.2845L12.3247 12.2395ZM29.6694 12.2395L29.2905 12.2845C29.0234 12.3159 28.7795 12.4522 28.6128 12.6634C28.419 12.9091 28.3486 13.2306 28.4233 13.5345L30.4419 21.7376C30.5791 22.2939 31.11 22.6619 31.6792 22.595L33.8677 22.3372C34.2951 22.2869 34.6578 21.9997 34.8042 21.595L35.0259 20.9807C35.1392 20.6667 35.109 20.3182 34.9429 20.0286L30.7876 12.802C30.561 12.4079 30.1209 12.1867 29.6694 12.2395Z" fill="white"/>
<path d="M21.5264 7.91805C24.1831 8.03552 26.6156 9.02269 28.5439 10.5987L28.7012 11.1397C28.2823 11.2776 27.9093 11.5366 27.6318 11.8878C27.1988 12.4361 27.0432 13.1537 27.21 13.8321L29.2285 22.0352C29.5162 23.204 30.6297 23.9764 31.8252 23.836L32.0498 23.8087L32.2646 25.1632C32.2703 25.1988 32.2723 25.235 32.2773 25.2706L32.2959 25.3809C32.2999 25.4127 32.3011 25.4449 32.3047 25.4766C32.3105 25.5285 32.3157 25.5803 32.3203 25.6319C32.3269 25.7056 32.3328 25.7793 32.3369 25.8526C32.3397 25.9015 32.3421 25.9504 32.3438 25.9991C32.3465 26.077 32.3486 26.155 32.3486 26.2325C32.3486 26.2814 32.3468 26.3302 32.3457 26.379C32.3442 26.4503 32.3427 26.522 32.3389 26.5928C32.3361 26.6448 32.3311 26.6965 32.3271 26.7481C32.3209 26.8294 32.3139 26.9107 32.3047 26.9913C32.3015 27.0195 32.2985 27.0481 32.2949 27.0762C32.2833 27.1679 32.2693 27.2591 32.2539 27.3497C32.2482 27.3832 32.2415 27.4169 32.2354 27.4503C32.2204 27.5308 32.2033 27.6109 32.1855 27.6905C32.1764 27.7314 32.1671 27.7729 32.1572 27.8136C32.1402 27.8835 32.1218 27.9534 32.1025 28.0225C32.0888 28.072 32.0754 28.1219 32.0605 28.171C32.0419 28.2325 32.0214 28.2938 32.001 28.3546C31.983 28.4083 31.9646 28.4626 31.9453 28.5157C31.9229 28.5772 31.8991 28.6386 31.875 28.6993C31.8576 28.7431 31.8396 28.7868 31.8213 28.8302C31.7949 28.8927 31.7675 28.9551 31.7393 29.0167C31.7167 29.0658 31.6936 29.1156 31.6699 29.1641C31.6395 29.2265 31.6075 29.2883 31.5752 29.3497C31.5551 29.3878 31.5354 29.4272 31.5146 29.4649C31.4748 29.5372 31.433 29.6091 31.3906 29.6798C31.3747 29.7063 31.3591 29.7335 31.3428 29.7598C31.2338 29.9359 31.1156 30.1064 30.9912 30.2716C30.9737 30.2948 30.9563 30.3188 30.9385 30.3419C30.8893 30.4055 30.8376 30.4676 30.7861 30.5294C30.7603 30.5604 30.7344 30.5926 30.708 30.6231C30.6626 30.6757 30.6153 30.7272 30.5684 30.7784C30.5351 30.8146 30.5018 30.8513 30.4678 30.8868L30.21 31.1446C30.1688 31.1831 30.1251 31.2194 30.083 31.2569C30.0413 31.2941 29.9997 31.3331 29.957 31.3692C29.9024 31.4155 29.8452 31.4594 29.7891 31.504C29.7544 31.5315 29.7198 31.5611 29.6846 31.588C29.6338 31.6267 29.5803 31.664 29.5283 31.7012C29.4821 31.7345 29.4358 31.7688 29.3887 31.8009C29.3301 31.8407 29.2699 31.8791 29.21 31.9171C29.1748 31.9394 29.1392 31.9627 29.1035 31.9845C29.0319 32.028 28.9582 32.0695 28.8848 32.1104C28.8548 32.1272 28.8242 32.1449 28.7939 32.1612C28.716 32.2031 28.6365 32.2444 28.5566 32.2833C28.5301 32.2962 28.5033 32.3097 28.4766 32.3223C28.1977 32.4537 27.9066 32.5647 27.6074 32.6573C27.3262 32.7444 27.0368 32.8163 26.7402 32.8663C26.3734 32.928 25.9948 32.9609 25.6084 32.961H25.4902L25.376 32.9327L25.3252 32.92L22.2422 32.1739V23.2784L22.7119 23.044C23.0745 22.8621 23.3045 22.4907 23.3047 22.085C23.3045 21.493 22.8234 21.0123 22.2314 21.0118H19.749C19.1566 21.0118 18.676 21.4927 18.6758 22.085C18.676 22.4911 18.9055 22.8623 19.2686 23.044L19.7422 23.2803V32.13L16.4785 32.92L16.4277 32.9327L16.3135 32.961H16.1953C15.8084 32.961 15.4288 32.9281 15.0615 32.8663C14.765 32.8162 14.4755 32.7445 14.1943 32.6573C13.8954 32.5647 13.6048 32.4536 13.3262 32.3223C13.3233 32.321 13.3194 32.3197 13.3164 32.3184L13.0391 32.1798C13.0286 32.1742 13.0182 32.1669 13.0078 32.1612C12.9777 32.145 12.9478 32.1271 12.918 32.1104C12.8445 32.0694 12.7699 32.0281 12.6982 31.9845C12.6627 31.9628 12.6278 31.9393 12.5928 31.9171C12.5328 31.879 12.4718 31.8408 12.4131 31.8009C12.3659 31.7688 12.3197 31.7345 12.2734 31.7012C12.2216 31.664 12.1689 31.6266 12.1182 31.588C12.0828 31.561 12.0484 31.5316 12.0137 31.504C11.9575 31.4594 11.9003 31.4155 11.8457 31.3692C11.8031 31.3331 11.7614 31.2941 11.7197 31.2569C11.6776 31.2194 11.6339 31.1831 11.5928 31.1446C11.5455 31.1003 11.5001 31.0525 11.4541 31.0069C11.414 30.9672 11.373 30.9275 11.334 30.8868C11.3 30.8513 11.2666 30.8146 11.2334 30.7784C11.1864 30.7272 11.1391 30.6757 11.0938 30.6231C11.0674 30.5926 11.0424 30.5604 11.0166 30.5294C10.9651 30.4674 10.9126 30.4056 10.8633 30.3419C10.8456 30.319 10.8289 30.2947 10.8115 30.2716C10.6872 30.1064 10.5689 29.9359 10.46 29.7598C10.4436 29.7334 10.4271 29.7064 10.4111 29.6798C10.3687 29.609 10.327 29.5373 10.2871 29.4649C10.2663 29.4272 10.2466 29.3878 10.2266 29.3497C10.1943 29.2883 10.1623 29.2265 10.1318 29.1641C10.1082 29.1156 10.085 29.0659 10.0625 29.0167C10.0343 28.9551 10.0068 28.8927 9.98047 28.8302C9.96218 28.7868 9.94415 28.7431 9.92676 28.6993C9.90264 28.6386 9.87882 28.5772 9.85645 28.5157C9.83715 28.4626 9.81973 28.4082 9.80176 28.3546C9.7814 28.2938 9.76084 28.2324 9.74219 28.171C9.72731 28.1219 9.71299 28.072 9.69922 28.0225C9.67996 27.9533 9.66159 27.8835 9.64453 27.8136C9.63462 27.7728 9.62537 27.7315 9.61621 27.6905C9.59841 27.6109 9.58133 27.5308 9.56641 27.4503C9.56023 27.4169 9.55451 27.3832 9.54883 27.3497C9.53346 27.2591 9.51947 27.1679 9.50781 27.0762C9.50425 27.0482 9.50126 27.0195 9.49805 26.9913C9.48885 26.9107 9.48088 26.8295 9.47461 26.7481C9.47063 26.6965 9.46666 26.6448 9.46387 26.5928C9.46007 26.522 9.45858 26.4503 9.45703 26.379C9.45646 26.3533 9.45437 26.3276 9.4541 26.3018V26.1241C9.45478 26.0827 9.45656 26.0406 9.45801 25.9991C9.4597 25.9504 9.46209 25.9015 9.46484 25.8526C9.469 25.7793 9.47583 25.7056 9.48242 25.6319C9.48702 25.5803 9.49225 25.5284 9.49805 25.4766C9.50162 25.4449 9.50378 25.4128 9.50781 25.3809L9.52441 25.2706C9.52949 25.235 9.53244 25.1988 9.53809 25.1632L9.76758 23.7882L10.1689 23.836C11.3643 23.9763 12.478 23.204 12.7656 22.0352L14.7842 13.8321C14.9509 13.1538 14.7951 12.436 14.3623 11.8878C14.0676 11.5146 13.6637 11.2486 13.2129 11.1182C13.2307 10.9429 13.2484 10.7697 13.2598 10.5987C15.1883 9.02276 17.6205 8.03535 20.2773 7.91805L20.8115 7.90633C20.8413 7.90634 20.8717 7.90707 20.9014 7.9073C20.9313 7.90707 20.9622 7.90633 20.9922 7.90633L21.5264 7.91805ZM17.5205 18.1192C16.8815 18.1192 16.3635 18.6375 16.3633 19.2764C16.3635 19.9154 16.8815 20.4337 17.5205 20.4337C18.1589 20.433 18.6775 19.915 18.6777 19.2764C18.6776 18.6379 18.1589 18.1199 17.5205 18.1192ZM24.4639 18.1192C23.8249 18.1192 23.3068 18.6375 23.3066 19.2764C23.3068 19.9154 23.8249 20.4337 24.4639 20.4337C25.1023 20.433 25.6209 19.915 25.6211 19.2764C25.6209 18.6379 25.1023 18.1199 24.4639 18.1192Z" fill="white"/>
</svg>
