<svg width="21" height="21" viewBox="0 0 21 21" fill="none" xmlns="http://www.w3.org/2000/svg">
<mask id="mask0_3482_46460" style="mask-type:alpha" maskUnits="userSpaceOnUse" x="0" y="0" width="21" height="21">
<rect x="0.333496" y="0.664062" width="20" height="20" fill="#D9D9D9"/>
</mask>
<g mask="url(#mask0_3482_46460)">
<path d="M9.44964 10.6631L7.53456 12.5782C7.40934 12.7034 7.34678 12.8507 7.34688 13.0201C7.34688 13.1896 7.40949 13.337 7.5347 13.4622C7.66002 13.5875 7.80733 13.6501 7.97664 13.6499C8.14596 13.6499 8.29322 13.5873 8.41844 13.4621L10.3335 11.547L12.2486 13.4621C12.3738 13.5873 12.5211 13.6498 12.6905 13.6498C12.8601 13.6498 13.0074 13.5871 13.1326 13.4619C13.2579 13.3366 13.3205 13.1893 13.3203 13.02C13.3203 12.8507 13.2577 12.7034 13.1325 12.5782L11.2174 10.6631L13.1325 8.74803C13.2577 8.62281 13.3203 8.4755 13.3202 8.30609C13.3202 8.13658 13.2576 7.98921 13.1323 7.864C13.007 7.73868 12.8597 7.67612 12.6904 7.67632C12.5211 7.67632 12.3738 7.73893 12.2486 7.86414L10.3335 9.77923L8.41844 7.86414C8.29322 7.73893 8.14591 7.67637 7.9765 7.67647C7.80699 7.67647 7.65962 7.73908 7.53441 7.86429C7.40909 7.98961 7.34653 8.13692 7.34673 8.30623C7.34673 8.47555 7.40934 8.62281 7.53456 8.74803L9.44964 10.6631ZM4.73662 16.2621C3.96234 15.4878 3.38148 14.6131 2.99405 13.638C2.60661 12.6628 2.41279 11.6715 2.4126 10.6638C2.4124 9.65622 2.60578 8.66489 2.99272 7.68987C3.37976 6.71495 3.96038 5.8404 4.73456 5.06621C5.50884 4.29193 6.38354 3.71107 7.35866 3.32364C8.33378 2.9362 9.32516 2.74238 10.3328 2.74219C11.3404 2.74199 12.3317 2.93537 13.3068 3.32231C14.2817 3.70935 15.1562 4.28997 15.9304 5.06415C16.7047 5.83843 17.2856 6.71313 17.673 7.68825C18.0604 8.66337 18.2542 9.65475 18.2544 10.6624C18.2546 11.67 18.0613 12.6613 17.6743 13.6363C17.2873 14.6113 16.7067 15.4858 15.9325 16.26C15.1582 17.0343 14.2835 17.6151 13.3084 18.0026C12.3333 18.39 11.3419 18.5838 10.3343 18.584C9.32663 18.5842 8.3353 18.3909 7.36028 18.0039C6.38536 17.6169 5.51081 17.0363 4.73662 16.2621Z" fill="currentColor"/>
</g>
</svg>
