<svg width="24" height="24" viewBox="0 0 24 24" fill="none" xmlns="http://www.w3.org/2000/svg">
<g id="icon/add_circle_fill">
<mask id="mask0_141_2033" style="mask-type:alpha" maskUnits="userSpaceOnUse" x="0" y="0" width="24" height="24">
<rect id="Bounding box" width="24" height="24" fill="#D9D9D9"/>
</mask>
<g mask="url(#mask0_141_2033)">
<path id="add_circle" d="M10.9393 12.0002L8.64122 14.2983C8.49096 14.4486 8.41589 14.6254 8.41601 14.8287C8.41601 15.0321 8.49114 15.2089 8.6414 15.3592C8.79178 15.5095 8.96855 15.5846 9.17173 15.5844C9.3749 15.5844 9.55162 15.5092 9.70188 15.359L12 13.0609L14.2981 15.359C14.4483 15.5092 14.6251 15.5843 14.8284 15.5842C15.0318 15.5842 15.2087 15.5091 15.3589 15.3588C15.5093 15.2084 15.5844 15.0316 15.5841 14.8285C15.5841 14.6253 15.509 14.4486 15.3587 14.2983L13.0606 12.0002L15.3587 9.70213C15.509 9.55187 15.5841 9.37509 15.584 9.1718C15.584 8.96839 15.5088 8.79155 15.3586 8.64129C15.2082 8.49091 15.0314 8.41584 14.8282 8.41608C14.6251 8.41608 14.4483 8.49121 14.2981 8.64147L12 10.9396L9.70188 8.64147C9.55162 8.49121 9.37485 8.41614 9.17155 8.41625C8.96814 8.41625 8.79131 8.49138 8.64105 8.64164C8.49067 8.79202 8.4156 8.9688 8.41583 9.17197C8.41583 9.37515 8.49096 9.55187 8.64122 9.70213L10.9393 12.0002ZM5.2837 18.719C4.35456 17.7898 3.65753 16.7402 3.19261 15.5701C2.72769 14.3999 2.49511 13.2103 2.49487 12.0011C2.49464 10.792 2.72669 9.60237 3.19102 8.43234C3.65547 7.26243 4.35221 6.21297 5.28123 5.28395C6.21037 4.35481 7.26001 3.65778 8.43015 3.19285C9.6003 2.72793 10.7899 2.49535 11.9991 2.49512C13.2082 2.49488 14.3978 2.72693 15.5679 3.19126C16.7378 3.65572 17.7872 4.35245 18.7163 5.28147C19.6454 6.21061 20.3424 7.26025 20.8073 8.4304C21.2723 9.60054 21.5049 10.7902 21.5051 11.9993C21.5053 13.2085 21.2733 14.3981 20.8089 15.5681C20.3445 16.738 19.6478 17.7875 18.7187 18.7165C17.7896 19.6456 16.74 20.3427 15.5698 20.8076C14.3997 21.2725 13.21 21.5051 12.0009 21.5053C10.7917 21.5056 9.60212 21.2735 8.4321 20.8092C7.26219 20.3447 6.21272 19.648 5.2837 18.719Z" fill="#CCCCCC"/>
</g>
</g>
</svg>
