<svg width="24" height="24" viewBox="0 0 24 24" fill="none" xmlns="http://www.w3.org/2000/svg">
<g id="visibility_off">
<mask id="mask0_474_816" style="mask-type:alpha" maskUnits="userSpaceOnUse" x="0" y="0" width="24" height="24">
<rect id="Bounding box" width="24" height="24" fill="#D9D9D9"/>
</mask>
<g mask="url(#mask0_474_816)">
<path id="visibility_off_2" d="M19.7616 21.8691L15.7156 17.8536C15.2027 18.0434 14.6344 18.1986 14.0106 18.3191C13.3869 18.4396 12.7167 18.4998 12.0001 18.4998C9.65007 18.4998 7.53666 17.8537 5.65982 16.5613C3.78282 15.269 2.40907 13.5818 1.53857 11.4998C1.90774 10.6165 2.38466 9.79249 2.96932 9.02782C3.55399 8.26299 4.19757 7.59982 4.90007 7.03832L2.13082 4.23832L3.18482 3.18457L20.8153 20.8151L19.7616 21.8691ZM12.0001 15.5768C12.2091 15.5768 12.4232 15.5588 12.6423 15.5228C12.8617 15.487 13.0566 15.4344 13.2271 15.3651L8.13482 10.2728C8.06549 10.4562 8.01291 10.6558 7.97707 10.8718C7.94107 11.088 7.92307 11.2973 7.92307 11.4998C7.92307 12.6345 8.31891 13.5977 9.11058 14.3893C9.90224 15.181 10.8654 15.5768 12.0001 15.5768ZM18.9538 16.0843L15.8173 12.9728C15.8955 12.76 15.9583 12.5318 16.0058 12.2883C16.0533 12.0447 16.0771 11.7818 16.0771 11.4998C16.0771 10.3652 15.6812 9.40199 14.8896 8.61032C14.0979 7.81865 13.1347 7.42282 12.0001 7.42282C11.7181 7.42282 11.4585 7.44815 11.2213 7.49882C10.9842 7.54949 10.7559 7.62549 10.5366 7.72682L8.03482 5.23457C8.66682 4.98324 9.31233 4.79799 9.97132 4.67882C10.6303 4.55949 11.3066 4.49982 12.0001 4.49982C14.3436 4.49982 16.457 5.14599 18.3403 6.43832C20.2237 7.73065 21.5974 9.41782 22.4616 11.4998C22.0911 12.3933 21.6126 13.2273 21.0261 14.0018C20.4394 14.7762 19.7487 15.4703 18.9538 16.0843ZM14.6846 11.8498L11.6751 8.84982C12.1161 8.76649 12.5324 8.79915 12.9241 8.94782C13.3157 9.09665 13.6532 9.31782 13.9366 9.61132C14.2264 9.90499 14.4386 10.2492 14.5731 10.6441C14.7077 11.0389 14.7449 11.4408 14.6846 11.8498Z" fill="#CCCCCC"/>
</g>
</g>
</svg>
